<mxfile host="app.diagrams.net" modified="2024-02-26T20:54:41.883Z" agent="Mozilla/5.0 (Windows NT 10.0; Win64; x64; rv:109.0) Gecko/20100101 Firefox/115.0" version="23.1.5" etag="OTMG14OdI1adKa8RqTca" type="github">
  <diagram name="Page-1" id="aasFRkLqUeWtPdUD6l-W">
    <mxGraphModel>
      <root>
        <mxCell id="0" />
        <mxCell id="1" parent="0" />
      </root>
    </mxGraphModel>
  </diagram>
</mxfile>
